<svg xmlns="http://www.w3.org/2000/svg" xmlns:xlink="http://www.w3.org/1999/xlink" width="51.024" height="51.024" viewBox="0 0 51.024 51.024"><defs><linearGradient id="a" x1="0.854" y1="0.146" x2="0.146" y2="0.854" gradientUnits="objectBoundingBox"><stop offset="0.001" stop-color="#fbe18a"/><stop offset="0.209" stop-color="#fcbb45"/><stop offset="0.376" stop-color="#f75274"/><stop offset="0.524" stop-color="#d53692"/><stop offset="0.739" stop-color="#8f39ce"/><stop offset="1" stop-color="#5b4fe9"/></linearGradient></defs><ellipse cx="25.512" cy="25.512" rx="25.512" ry="25.512" transform="translate(0 0)" fill="url(#a)"/><g transform="translate(10.555 10.52)"><path d="M97.1,68.693a1.754,1.754,0,1,0,1.754,1.754A1.754,1.754,0,0,0,97.1,68.693Z" transform="translate(-74.219 -63.352)" fill="#fff"/><path d="M95.023,69.982a7.367,7.367,0,1,0,7.367,7.367A7.375,7.375,0,0,0,95.023,69.982Zm0,12.085a4.719,4.719,0,1,1,4.72-4.718A4.723,4.723,0,0,1,95.023,82.067Z" transform="translate(-79.944 -62.392)" fill="#fff"/><path d="M104.164,95.544H92.222a8.994,8.994,0,0,1-8.986-8.984V74.616a9,9,0,0,1,8.986-8.984h11.942a9,9,0,0,1,8.986,8.984V86.56A9,9,0,0,1,104.164,95.544Zm-11.942-27.1a6.177,6.177,0,0,0-6.171,6.17V86.56a6.178,6.178,0,0,0,6.171,6.171h11.942a6.179,6.179,0,0,0,6.171-6.171V74.616a6.178,6.178,0,0,0-6.171-6.17Z" transform="translate(-83.236 -65.632)" fill="#fff"/></g></svg>