<svg xmlns="http://www.w3.org/2000/svg" xmlns:xlink="http://www.w3.org/1999/xlink" width="50.314" height="50.314" viewBox="0 0 50.314 50.314"><defs><linearGradient id="a" x1="0.146" y1="0.147" x2="0.854" y2="0.859" gradientUnits="objectBoundingBox"><stop offset="0" stop-color="#4676ed"/><stop offset="0.185" stop-color="#436de4"/><stop offset="0.487" stop-color="#3b54cd"/><stop offset="0.865" stop-color="#2f2da8"/><stop offset="1" stop-color="#2b1e99"/></linearGradient></defs><g transform="translate(0)"><path d="M83.531,85.239a25.157,25.157,0,1,0-29.088,24.852V92.512H48.057V85.239h6.387V79.7c0-6.3,3.756-9.788,9.5-9.788a38.653,38.653,0,0,1,5.631.492v6.191H66.4c-3.125,0-4.1,1.939-4.1,3.93v4.718h6.977l-1.115,7.273H62.3v17.579A25.164,25.164,0,0,0,83.531,85.239Z" transform="translate(-33.217 -60.083)" fill="url(#a)"/><path d="M61.952,88.4l1.115-7.273H56.09V76.406c0-1.991.976-3.93,4.1-3.93h3.173V66.286a38.654,38.654,0,0,0-5.631-.492c-5.747,0-9.5,3.484-9.5,9.788v5.542H41.842V88.4h6.387v17.579a25.378,25.378,0,0,0,7.861,0V88.4Z" transform="translate(-27.002 -55.968)" fill="#fff"/></g></svg>